<svg width="1024" height="1024" viewBox="0 0 1024 1024" fill="none" xmlns="http://www.w3.org/2000/svg">
<path d="M0 0H1024V1024H0V0Z" fill="#FFA500"/>
<g clip-path="url(#clip0)">
<path d="M351.14 477.047C348.924 477.047 346.685 476.528 344.766 475.472L242.912 419.875C237.68 417.021 236.286 411.258 239.805 407.014C243.323 402.77 250.383 401.64 255.638 404.494L351.14 456.624L446.62 404.494C451.852 401.658 458.934 402.752 462.476 407.014C465.994 411.258 464.6 417.021 459.368 419.875L357.515 475.472C355.573 476.509 353.356 477.047 351.14 477.047Z" fill="#FFE98A"/>
<path d="M818.53 495.579C816.337 495.579 814.143 495.079 812.178 494.004L716.699 441.854L621.197 493.985C615.965 496.839 608.882 495.727 605.363 491.465C601.845 487.202 603.216 481.458 608.471 478.604L710.325 423.007C714.186 420.913 719.235 420.913 723.096 423.007L824.95 478.604C830.182 481.458 831.576 487.221 828.057 491.465C825.795 494.133 822.186 495.579 818.53 495.579Z" fill="#FFE98A"/>
<path d="M545.343 467.781H522.496V324.731C522.496 289.131 486.625 260.165 442.53 260.165C398.434 260.165 362.564 289.391 362.564 325.343V467.781H339.717V325.306C339.717 279.161 385.845 241.578 442.53 241.578C499.214 241.578 545.343 278.864 545.343 324.639V467.781Z" fill="#FFE98A"/>
<path d="M625.309 662.368C568.625 662.368 522.496 624.841 522.496 578.677V430.717H545.343V578.677C545.343 614.592 581.214 643.836 625.309 643.836C669.405 643.836 705.275 614.87 705.275 579.27V430.717H728.123V579.27C728.123 625.081 681.971 662.368 625.309 662.368Z" fill="#FFE98A"/>
<path d="M377.028 774.559L368.466 780.593V816H353.447V754.18L328.464 792.319H312.743L287.76 754.18V816H272.741V780.593L264.179 774.559L272.741 768.411V732.549H289.163L320.603 779.568L352.044 732.549H368.466V768.411L377.028 774.559ZM492.487 774.559L483.925 780.593V801.997L464.696 816H428.202L408.973 801.997V780.593L400.411 774.559L408.973 768.411V732.549H423.992V796.19L434.659 803.818H458.239L468.906 796.19V732.549H483.925V768.411L492.487 774.559ZM598.261 816H581.979L560.505 780.707H542.118V816H527.099V780.707L518.537 774.559L527.099 768.525V732.549H576.786L593.489 748.26V764.996L576.786 780.707L598.261 816ZM578.47 759.759V753.383L569.628 744.845H542.118V768.525H569.628L578.47 759.759ZM697.158 816H634.979V780.593L626.417 774.559L634.979 768.411V732.549H649.997V803.818H697.158V816ZM802.511 802.11L783.141 816H748.192L728.823 802.11V786.969H743.841V796.304L754.508 803.818H776.685L787.352 796.304V786.969L776.685 779.568H750.297L730.928 765.565V746.439L750.297 732.549H783.001L802.37 746.439V760.328H787.352V751.676L777.387 744.731H756.052L746.087 751.676V760.328L756.052 767.387H783.141L802.511 781.276V802.11Z" fill="white"/>
</g>
<defs>
<clipPath id="clip0">
<rect width="636" height="610" fill="white" transform="translate(194 206)"/>
</clipPath>
</defs>
</svg>
