<svg width="512" height="512" viewBox="0 0 512 512" fill="none" xmlns="http://www.w3.org/2000/svg">
<path d="M0 0H512V512H0V0Z" fill="#FFA500"/>
<g clip-path="url(#clip0)">
<path d="M175.57 238.523C174.462 238.523 173.342 238.264 172.383 237.736L121.456 209.938C118.84 208.511 118.143 205.629 119.902 203.507C121.662 201.385 125.192 200.82 127.819 202.247L175.57 228.312L223.31 202.247C225.926 200.829 229.467 201.376 231.238 203.507C232.997 205.629 232.3 208.511 229.684 209.938L178.757 237.736C177.786 238.255 176.678 238.523 175.57 238.523V238.523Z" fill="#FFE98A"/>
<path d="M409.265 247.79C408.168 247.79 407.072 247.539 406.089 247.002L358.349 220.927L310.598 246.993C307.982 248.42 304.441 247.864 302.682 245.732C300.922 243.601 301.608 240.729 304.235 239.302L355.162 211.504C357.093 210.457 359.618 210.457 361.548 211.504L412.475 239.302C415.091 240.729 415.788 243.611 414.029 245.732C412.898 247.067 411.093 247.79 409.265 247.79V247.79Z" fill="#FFE98A"/>
<path d="M272.672 233.89H261.248V162.366C261.248 144.566 243.313 130.083 221.265 130.083C199.217 130.083 181.282 144.695 181.282 162.671V233.89H169.858V162.653C169.858 139.58 192.923 120.789 221.265 120.789C249.607 120.789 272.672 139.432 272.672 162.319V233.89V233.89Z" fill="#FFE98A"/>
<path d="M312.655 331.184C284.312 331.184 261.248 312.42 261.248 289.339V215.358H272.672V289.339C272.672 307.296 290.607 321.918 312.655 321.918C334.702 321.918 352.638 307.435 352.638 289.635V215.358H364.061V289.635C364.061 312.541 340.985 331.184 312.655 331.184Z" fill="#FFE98A"/>
<path d="M188.514 387.28L184.233 390.297V408H176.724V377.09L164.232 396.16H156.372L143.88 377.09V408H136.371V390.297L132.09 387.28L136.371 384.206V366.275H144.582L160.302 389.784L176.022 366.275H184.233V384.206L188.514 387.28ZM246.243 387.28L241.962 390.297V400.998L232.348 408H214.101L204.487 400.998V390.297L200.206 387.28L204.487 384.206V366.275H211.996V398.095L217.329 401.909H229.12L234.453 398.095V366.275H241.962V384.206L246.243 387.28ZM299.13 408H290.99L280.252 390.353H271.059V408H263.55V390.353L259.269 387.28L263.55 384.263V366.275H288.393L296.744 374.13V382.498L288.393 390.353L299.13 408ZM289.235 379.879V376.692L284.814 372.422H271.059V384.263H284.814L289.235 379.879ZM348.579 408H317.489V390.297L313.208 387.28L317.489 384.206V366.275H324.999V401.909H348.579V408ZM401.255 401.055L391.571 408H374.096L364.411 401.055V393.484H371.92V398.152L377.254 401.909H388.342L393.676 398.152V393.484L388.342 389.784H375.149L365.464 382.783V373.219L375.149 366.275H391.5L401.185 373.219V380.164H393.676V375.838L388.693 372.365H378.026L373.043 375.838V380.164L378.026 383.693H391.571L401.255 390.638V401.055V401.055Z" fill="white"/>
</g>
<defs>
<clipPath id="clip0">
<rect width="318" height="305" fill="white" transform="translate(97 103)"/>
</clipPath>
</defs>
</svg>
