<svg width="32" height="32" viewBox="0 0 32 32" fill="none" xmlns="http://www.w3.org/2000/svg">
<path d="M0 0H32V32H0V0Z" fill="#FFA500"/>
<g clip-path="url(#clip0)">
<path d="M10.9731 14.9077C10.9039 14.9077 10.8339 14.8915 10.7739 14.8585L7.591 13.1211C7.4275 13.0319 7.38395 12.8518 7.4939 12.7192C7.60385 12.5866 7.82447 12.5512 7.98869 12.6404L10.9731 14.2695L13.9569 12.6404C14.1204 12.5518 14.3417 12.586 14.4524 12.7192C14.5623 12.8518 14.5188 13.0319 14.3553 13.1211L11.1723 14.8585C11.1116 14.8909 11.0424 14.9077 10.9731 14.9077V14.9077Z" fill="#FFE98A"/>
<path d="M25.5791 15.4868C25.5105 15.4868 25.442 15.4712 25.3806 15.4376L22.3969 13.8079L19.4124 15.437C19.2489 15.5262 19.0276 15.4915 18.9176 15.3583C18.8077 15.2251 18.8505 15.0455 19.0147 14.9564L22.1977 13.219C22.3183 13.1535 22.4761 13.1535 22.5968 13.219L25.7797 14.9564C25.9432 15.0455 25.9868 15.2257 25.8768 15.3583C25.8061 15.4417 25.6933 15.4868 25.5791 15.4868V15.4868Z" fill="#FFE98A"/>
<path d="M17.042 14.6181H16.328V10.1479C16.328 9.03535 15.207 8.13017 13.8291 8.13017C12.4511 8.13017 11.3301 9.04345 11.3301 10.167V14.6181H10.6161V10.1658C10.6161 8.72377 12.0577 7.5493 13.8291 7.5493C15.6005 7.5493 17.042 8.71451 17.042 10.145V14.6181V14.6181Z" fill="#FFE98A"/>
<path d="M19.5409 20.699C17.7695 20.699 16.328 19.5263 16.328 18.0837V13.4599H17.042V18.0837C17.042 19.206 18.1629 20.1199 19.5409 20.1199C20.9189 20.1199 22.0399 19.2147 22.0399 18.1022V13.4599H22.7538V18.1022C22.7538 19.5338 21.3116 20.699 19.5409 20.699Z" fill="#FFE98A"/>
<path d="M11.7821 24.205L11.5146 24.3935V25.5H11.0452V23.5681L10.2645 24.76H9.77323L8.99249 23.5681V25.5H8.52316V24.3935L8.2556 24.205L8.52316 24.0129V22.8922H9.03635L10.0189 24.3615L11.0014 22.8922H11.5146V24.0129L11.7821 24.205ZM15.3902 24.205L15.1227 24.3935V25.0624L14.5217 25.5H13.3813L12.7804 25.0624V24.3935L12.5129 24.205L12.7804 24.0129V22.8922H13.2497V24.881L13.5831 25.1193H14.32L14.6533 24.881V22.8922H15.1227V24.0129L15.3902 24.205ZM18.6957 25.5H18.1869L17.5158 24.3971H16.9412V25.5H16.4718V24.3971L16.2043 24.205L16.4718 24.0164V22.8922H18.0246L18.5465 23.3831V23.9061L18.0246 24.3971L18.6957 25.5ZM18.0772 23.7425V23.5432L17.8009 23.2764H16.9412V24.0164H17.8009L18.0772 23.7425ZM21.7862 25.5H19.8431V24.3935L19.5755 24.205L19.8431 24.0129V22.8922H20.3124V25.1193H21.7862V25.5ZM25.0785 25.066L24.4732 25.5H23.381L22.7757 25.066V24.5928H23.245V24.8845L23.5784 25.1193H24.2714L24.6048 24.8845V24.5928L24.2714 24.3615H23.4468L22.8415 23.9239V23.3262L23.4468 22.8922H24.4688L25.0741 23.3262V23.7603H24.6048V23.4899L24.2933 23.2728H23.6266L23.3152 23.4899V23.7603L23.6266 23.9808H24.4732L25.0785 24.4149V25.066V25.066Z" fill="white"/>
</g>
<defs>
<clipPath id="clip0">
<rect width="19.875" height="19.0625" fill="white" transform="translate(6.0625 6.4375)"/>
</clipPath>
</defs>
</svg>
